<mxfile host="app.diagrams.net" agent="Mozilla/5.0 (Windows NT 10.0; Win64; x64; rv:131.0) Gecko/20100101 Firefox/131.0" version="24.7.17">
  <diagram name="Page-1" id="2ca16b54-16f6-2749-3443-fa8db7711227">
    <mxGraphModel dx="1050" dy="605" grid="1" gridSize="10" guides="1" tooltips="1" connect="1" arrows="1" fold="1" page="1" pageScale="1" pageWidth="1100" pageHeight="850" background="none" math="0" shadow="0">
      <root>
        <mxCell id="0" />
        <mxCell id="1" parent="0" />
        <mxCell id="hcufbNE1Xqa3wt-wu4ln-4" value="" style="edgeStyle=orthogonalEdgeStyle;rounded=0;orthogonalLoop=1;jettySize=auto;html=1;strokeColor=#FFFFFF;" edge="1" parent="1" source="hcufbNE1Xqa3wt-wu4ln-2" target="hcufbNE1Xqa3wt-wu4ln-3">
          <mxGeometry relative="1" as="geometry" />
        </mxCell>
        <mxCell id="hcufbNE1Xqa3wt-wu4ln-2" value="&lt;font color=&quot;#ffffff&quot;&gt;Sensor ECG AD8232&lt;/font&gt;" style="rounded=0;whiteSpace=wrap;html=1;fillColor=#000000;strokeColor=#FFFFFF;" vertex="1" parent="1">
          <mxGeometry x="90" y="230" width="120" height="60" as="geometry" />
        </mxCell>
        <mxCell id="hcufbNE1Xqa3wt-wu4ln-6" value="" style="edgeStyle=orthogonalEdgeStyle;rounded=0;orthogonalLoop=1;jettySize=auto;html=1;strokeColor=#FFFFFF;" edge="1" parent="1" source="hcufbNE1Xqa3wt-wu4ln-3" target="hcufbNE1Xqa3wt-wu4ln-5">
          <mxGeometry relative="1" as="geometry" />
        </mxCell>
        <mxCell id="hcufbNE1Xqa3wt-wu4ln-3" value="&lt;font color=&quot;#ffffff&quot;&gt;ESP32&lt;/font&gt;" style="whiteSpace=wrap;html=1;aspect=fixed;fillColor=#000000;strokeColor=#FFFFFF;" vertex="1" parent="1">
          <mxGeometry x="240" y="195" width="130" height="130" as="geometry" />
        </mxCell>
        <mxCell id="hcufbNE1Xqa3wt-wu4ln-8" value="" style="edgeStyle=orthogonalEdgeStyle;rounded=0;orthogonalLoop=1;jettySize=auto;html=1;strokeColor=#FFFFFF;" edge="1" parent="1" source="hcufbNE1Xqa3wt-wu4ln-5" target="hcufbNE1Xqa3wt-wu4ln-7">
          <mxGeometry relative="1" as="geometry" />
        </mxCell>
        <mxCell id="hcufbNE1Xqa3wt-wu4ln-5" value="&lt;font color=&quot;#ffffff&quot;&gt;Raspberry Pi 4&lt;/font&gt;" style="whiteSpace=wrap;html=1;aspect=fixed;gradientColor=none;fillColor=#000000;strokeColor=#FFFFFF;" vertex="1" parent="1">
          <mxGeometry x="410" y="195" width="130" height="130" as="geometry" />
        </mxCell>
        <mxCell id="hcufbNE1Xqa3wt-wu4ln-7" value="" style="sketch=0;pointerEvents=1;shadow=0;dashed=0;html=1;aspect=fixed;labelPosition=center;verticalLabelPosition=bottom;verticalAlign=top;align=center;outlineConnect=0;shape=mxgraph.vvd.wi_fi;fillColor=#000000;gradientColor=none;strokeColor=#FFFFFF;" vertex="1" parent="1">
          <mxGeometry x="570" y="220" width="30" height="30" as="geometry" />
        </mxCell>
        <mxCell id="hcufbNE1Xqa3wt-wu4ln-12" value="" style="edgeStyle=orthogonalEdgeStyle;rounded=0;orthogonalLoop=1;jettySize=auto;html=1;strokeColor=#FFFFFF;" edge="1" parent="1" source="hcufbNE1Xqa3wt-wu4ln-10" target="hcufbNE1Xqa3wt-wu4ln-11">
          <mxGeometry relative="1" as="geometry" />
        </mxCell>
        <mxCell id="hcufbNE1Xqa3wt-wu4ln-10" value="&lt;font color=&quot;#ffffff&quot;&gt;server&lt;/font&gt;" style="ellipse;shape=cloud;whiteSpace=wrap;html=1;fillColor=#000000;strokeColor=#FFFFFF;" vertex="1" parent="1">
          <mxGeometry x="620" y="195" width="120" height="80" as="geometry" />
        </mxCell>
        <mxCell id="hcufbNE1Xqa3wt-wu4ln-14" value="" style="edgeStyle=orthogonalEdgeStyle;rounded=0;orthogonalLoop=1;jettySize=auto;html=1;strokeColor=#FFFFFF;" edge="1" parent="1" source="hcufbNE1Xqa3wt-wu4ln-11" target="hcufbNE1Xqa3wt-wu4ln-13">
          <mxGeometry relative="1" as="geometry" />
        </mxCell>
        <mxCell id="hcufbNE1Xqa3wt-wu4ln-11" value="&lt;font color=&quot;#ffffff&quot;&gt;Machine Learning Model&lt;/font&gt;" style="whiteSpace=wrap;html=1;fillColor=#000000;strokeColor=#FFFFFF;" vertex="1" parent="1">
          <mxGeometry x="620" y="365" width="120" height="60" as="geometry" />
        </mxCell>
        <mxCell id="hcufbNE1Xqa3wt-wu4ln-16" value="" style="edgeStyle=orthogonalEdgeStyle;rounded=0;orthogonalLoop=1;jettySize=auto;html=1;strokeColor=#FFFFFF;" edge="1" parent="1" source="hcufbNE1Xqa3wt-wu4ln-13" target="hcufbNE1Xqa3wt-wu4ln-15">
          <mxGeometry relative="1" as="geometry" />
        </mxCell>
        <mxCell id="hcufbNE1Xqa3wt-wu4ln-13" value="&lt;font color=&quot;#ffffff&quot;&gt;Website Frontend &lt;/font&gt;" style="whiteSpace=wrap;html=1;fillColor=#000000;strokeColor=#FFFFFF;" vertex="1" parent="1">
          <mxGeometry x="420" y="365" width="120" height="60" as="geometry" />
        </mxCell>
        <mxCell id="hcufbNE1Xqa3wt-wu4ln-15" value="&lt;font color=&quot;#ffffff&quot;&gt;Tenaga Medis/Pasien&lt;/font&gt;" style="whiteSpace=wrap;html=1;fillColor=#000000;strokeColor=#FFFFFF;" vertex="1" parent="1">
          <mxGeometry x="220" y="365" width="120" height="60" as="geometry" />
        </mxCell>
      </root>
    </mxGraphModel>
  </diagram>
</mxfile>
